<svg xmlns="http://www.w3.org/2000/svg" viewBox="0 0 1440 320">
    <defs>
        <clipPath id="footer-clip" clipPathUnits="objectBoundingBox">
            <path d="M0,128L48,128C96,128,192,128,288,128C384,128,480,128,576,149.3C672,171,768,213,864,197.3C960,181,1056,107,1152,74.7C1248,43,1344,53,1392,58.7L1440,64L1440,320L1392,320C1344,320,1248,320,1152,320C1056,320,960,320,864,320C768,320,672,320,576,320C480,320,384,320,288,320C192,320,96,320,48,320L0,320Z">
            </path>
        </clipPath>
    </defs>
</svg>
